<?xml version="1.0" standalone="no"?>
<!DOCTYPE svg PUBLIC "-//W3C//DTD SVG 20010904//EN"
 "http://www.w3.org/TR/2001/REC-SVG-20010904/DTD/svg10.dtd">
<svg version="1.0" xmlns="http://www.w3.org/2000/svg"
 width="1329.000000pt" height="1329.000000pt" viewBox="0 0 1329.000000 1329.000000"
 preserveAspectRatio="xMidYMid meet">
<metadata>
Created by potrace 1.11, written by Peter Selinger 2001-2013
</metadata>
<g transform="translate(0.000000,1329.000000) scale(0.100000,-0.100000)"
fill="#000000" stroke="none">
<path d="M5665 13269 c-4 -6 -16 -9 -26 -6 -10 3 -24 -2 -30 -10 -7 -8 -21
-12 -30 -10 -10 3 -20 -2 -23 -10 -3 -8 -12 -13 -19 -10 -6 2 -20 -3 -30 -11
-13 -11 -20 -13 -28 -5 -15 15 -37 6 -74 -29 -36 -35 -70 -45 -91 -27 -14 12
-131 17 -164 7 -38 -12 -70 -33 -70 -46 0 -12 -4 -12 -25 2 -14 9 -25 13 -25
9 0 -3 -11 4 -25 17 -14 13 -24 29 -21 35 2 7 0 18 -4 26 -7 10 -11 7 -19 -14
-6 -16 -11 -33 -11 -38 0 -12 -27 -12 -35 1 -10 16 -35 11 -35 -7 0 -15 -2
-14 -14 3 -12 15 -17 17 -27 7 -19 -19 -29 -16 -29 7 0 11 -6 21 -12 22 -7 0
-20 2 -28 3 -8 1 -22 -5 -31 -12 -11 -9 -35 -12 -72 -9 -32 2 -57 0 -57 -6 0
-5 -5 -6 -11 -3 -5 4 -19 -1 -30 -11 -10 -9 -19 -15 -19 -11 0 3 -15 1 -32 -3
-18 -5 -62 -12 -98 -15 -36 -3 -74 -7 -85 -9 -11 -3 -23 -5 -27 -5 -13 -2 -9
-19 8 -36 27 -26 3 -40 -86 -49 -19 -3 -47 2 -62 10 -29 15 -58 10 -58 -11 0
-19 -20 -29 -32 -17 -6 6 -11 26 -11 46 -1 20 -4 36 -7 36 -3 0 -13 -26 -23
-58 -10 -31 -25 -66 -32 -76 -14 -19 -15 -19 -35 -1 -23 21 -43 15 -67 -22
-12 -18 -12 -23 2 -36 19 -20 19 -53 0 -61 -10 -3 -15 1 -15 13 0 28 -25 45
-47 32 -10 -6 -14 -11 -8 -11 5 0 -1 -7 -13 -16 -12 -8 -22 -24 -22 -36 0 -19
-1 -20 -25 -4 -26 17 -75 22 -75 7 0 -5 6 -16 13 -23 16 -18 37 -55 37 -66 0
-5 -25 -35 -55 -66 -30 -32 -57 -65 -60 -75 -3 -10 -16 -23 -29 -29 -14 -6
-32 -26 -40 -44 -31 -63 -50 -80 -89 -80 -20 0 -40 -5 -46 -11 -5 -7 -11 -41
-15 -76 -3 -39 -12 -71 -22 -82 -12 -14 -14 -22 -6 -31 8 -10 4 -19 -14 -37
-13 -13 -24 -29 -24 -36 0 -7 -21 -36 -47 -65 -44 -49 -46 -55 -53 -128 -4
-42 -11 -85 -15 -95 -9 -22 -41 -40 -78 -43 -15 -1 -34 -8 -43 -15 -9 -7 -25
-14 -36 -16 -61 -9 -125 -68 -134 -123 -5 -33 -12 -41 -43 -54 -21 -8 -42 -21
-49 -28 -12 -15 -5 -61 8 -53 4 3 13 -1 19 -9 9 -11 3 -17 -29 -30 -22 -9 -40
-19 -40 -23 0 -3 2 -4 6 -1 3 3 22 -2 42 -12 l37 -18 2 -74 c1 -40 5 -91 8
-114 6 -33 1 -52 -23 -100 -31 -63 -30 -93 5 -112 20 -12 21 -43 6 -192 -7
-68 -16 -106 -32 -132 -27 -45 -21 -83 11 -72 18 5 20 3 13 -12 -20 -46 2
-100 37 -91 15 4 18 1 16 -16 -2 -14 2 -21 10 -19 15 3 65 -22 95 -48 12 -10
32 -27 44 -37 12 -10 25 -31 28 -48 3 -16 8 -227 11 -469 4 -420 9 -486 35
-471 14 9 11 -1 -17 -55 -14 -27 -28 -62 -30 -77 -17 -103 -16 -119 9 -179 29
-72 24 -93 -20 -77 -51 20 -152 36 -182 30 -40 -8 -99 -72 -107 -114 -6 -30 2
-278 11 -358 2 -16 6 -61 10 -100 15 -157 23 -217 41 -305 8 -41 19 -84 23
-95 15 -34 35 -118 33 -140 -1 -11 7 -38 17 -60 19 -40 61 -207 61 -240 0 -10
-21 -38 -47 -64 l-48 -46 34 -3 c36 -4 50 -16 77 -66 16 -29 16 -30 -18 -62
-33 -30 -34 -33 -21 -58 12 -23 29 -31 56 -27 14 2 7 -27 -8 -33 -23 -9 -18
-33 20 -95 23 -37 33 -64 29 -75 -5 -12 -1 -19 15 -23 25 -6 25 -4 6 -39 -21
-41 -19 -54 10 -54 25 0 25 -1 10 -24 -11 -17 -13 -25 -4 -28 6 -2 12 -19 14
-38 2 -19 3 -38 4 -42 1 -3 21 -30 46 -59 44 -52 45 -55 39 -106 -5 -43 -2
-61 15 -93 23 -44 27 -75 11 -85 -19 -12 -11 -38 10 -32 23 6 26 -3 8 -22 -13
-13 -10 -17 39 -47 14 -10 16 -14 6 -25 -24 -24 -13 -99 13 -99 8 0 14 -8 14
-17 0 -9 14 -32 31 -49 19 -20 32 -45 34 -64 2 -18 11 -38 23 -46 16 -11 20
-21 15 -49 -5 -32 -3 -34 28 -43 l34 -8 0 -73 c0 -78 9 -93 52 -85 31 6 39
-16 18 -55 -15 -30 -15 -31 10 -43 23 -10 24 -13 10 -28 -14 -16 -14 -19 1
-35 10 -9 18 -24 19 -34 5 -39 16 -50 40 -41 27 10 32 6 39 -36 6 -32 30 -54
58 -54 31 0 56 -37 52 -78 -2 -20 5 -62 16 -94 31 -91 50 -232 54 -403 3 -119
-4 -162 -31 -188 -40 -39 -89 -77 -105 -83 -10 -3 -18 -10 -18 -15 0 -5 -7 -9
-15 -9 -8 0 -15 -4 -15 -9 0 -5 -13 -14 -30 -21 -16 -7 -30 -16 -30 -20 0 -4
-18 -15 -40 -26 -22 -10 -40 -21 -40 -24 0 -3 -20 -16 -45 -30 -25 -14 -45
-28 -45 -32 0 -5 -5 -8 -11 -8 -6 0 -31 -13 -56 -30 -24 -16 -46 -30 -48 -30
-9 0 -170 -105 -173 -112 -2 -5 -9 -8 -16 -8 -8 0 -25 -9 -40 -21 -14 -11 -26
-18 -26 -14 0 3 -6 1 -12 -5 -17 -14 -88 -60 -93 -60 -2 0 -40 -22 -85 -50
-45 -27 -84 -50 -87 -50 -4 0 -14 -6 -22 -14 -9 -7 -36 -24 -61 -37 -25 -13
-51 -30 -58 -37 -8 -7 -18 -10 -23 -7 -5 4 -9 1 -9 -4 0 -6 -7 -11 -15 -11 -8
0 -15 -3 -15 -8 0 -6 -67 -41 -90 -47 -14 -4 -88 -41 -110 -56 -48 -32 -141
-79 -156 -79 -46 0 -187 -85 -275 -164 -95 -87 -240 -179 -434 -276 -49 -24
-99 -53 -109 -62 -11 -10 -24 -18 -28 -18 -27 0 -326 -244 -478 -390 -76 -73
-283 -267 -306 -287 -12 -10 -45 -39 -75 -65 -48 -41 -82 -70 -114 -96 -5 -4
-28 -21 -50 -37 -22 -17 -46 -36 -55 -42 -8 -7 -24 -19 -34 -26 -19 -14 -19
-15 7 -65 15 -28 30 -69 33 -92 6 -37 8 -40 22 -27 10 11 12 23 7 44 -10 33
-10 41 0 70 12 37 25 16 20 -31 -4 -38 -1 -46 20 -60 14 -9 29 -33 35 -57 9
-33 15 -40 33 -37 15 2 23 11 25 28 5 33 20 50 39 43 9 -4 19 1 25 10 15 27
36 19 49 -18 15 -41 25 -44 35 -12 7 22 7 21 16 -5 11 -31 23 -35 44 -13 13
13 19 12 50 -2 33 -16 35 -16 50 5 8 12 19 22 24 22 9 0 25 -39 22 -53 -4 -13
48 -27 74 -21 21 5 29 21 25 47 0 4 3 7 9 7 5 0 10 -6 10 -14 0 -8 8 -17 17
-20 10 -4 15 -4 11 -1 -7 8 11 65 20 65 16 -1 49 -38 71 -80 34 -65 38 -67 61
-37 12 15 28 27 35 27 7 0 21 7 29 16 15 14 16 13 17 -13 1 -15 1 -31 0 -36 0
-4 6 -7 15 -7 8 0 13 4 10 9 -3 5 1 14 9 21 20 16 41 -1 60 -47 10 -23 20 -34
32 -32 10 1 29 -3 43 -8 14 -6 29 -12 34 -14 6 -2 10 12 10 31 1 53 19 42 41
-25 11 -33 26 -60 33 -59 32 3 38 5 50 25 8 12 16 33 19 48 6 36 12 39 32 13
18 -24 80 -41 82 -23 1 6 3 16 4 21 1 6 3 15 4 21 0 6 7 9 15 6 7 -3 19 0 25
6 8 8 11 1 11 -26 0 -20 0 -40 1 -44 1 -15 30 -41 42 -39 27 6 47 19 47 31 0
25 29 24 54 -2 14 -14 26 -30 26 -35 0 -5 5 -6 10 -3 5 3 10 17 10 31 0 13 5
24 10 24 15 0 50 -61 51 -90 1 -23 2 -21 18 12 22 48 57 76 88 70 13 -2 26 -8
29 -13 3 -5 16 -9 29 -9 26 0 35 -17 35 -64 0 -42 10 -51 28 -25 13 19 15 19
26 3 12 -15 13 -15 29 1 16 15 17 15 17 -4 0 -23 16 -36 25 -21 9 15 45 12 45
-3 0 -34 70 -72 86 -46 3 5 9 7 14 4 13 -8 60 37 65 63 8 44 31 56 55 27 7 -8
16 -12 21 -10 4 3 21 -14 36 -37 15 -24 29 -45 30 -47 4 -6 28 18 28 27 0 4 8
18 17 31 23 32 41 17 63 -50 10 -28 19 -48 21 -46 3 2 6 27 9 56 11 124 50
122 155 -9 52 -65 160 -170 175 -170 7 0 16 7 19 16 6 15 8 15 32 -1 14 -9 28
-14 31 -12 2 3 13 36 22 74 10 39 23 78 28 88 10 17 11 17 22 -3 15 -27 31
-28 61 -2 13 11 26 20 30 20 4 0 24 -21 46 -47 77 -93 223 -233 244 -233 3 0
31 22 61 50 38 35 62 50 82 50 37 0 103 -35 138 -72 l28 -31 27 32 27 33 12
-23 c7 -12 20 -24 30 -25 35 -5 41 -13 43 -55 3 -49 17 -79 36 -79 7 0 32 14
54 30 23 17 48 30 56 30 7 0 25 10 40 21 15 12 30 19 33 16 6 -7 7 -44 2 -67
-3 -12 5 -14 44 -12 42 3 47 1 47 -18 0 -32 27 -35 61 -6 37 32 60 33 79 5 33
-48 80 -77 80 -50 0 12 35 20 49 12 6 -4 17 -25 25 -46 l14 -40 7 32 c5 22 16
35 37 44 16 7 34 24 40 38 l10 26 9 -22 c10 -26 31 -30 49 -8 18 21 30 9 30
-31 0 -39 12 -44 28 -12 10 21 11 20 11 -14 1 -24 8 -45 21 -58 11 -11 20 -26
20 -34 0 -22 14 -26 41 -12 28 14 86 15 109 1 8 -5 34 -10 59 -11 55 -4 74
-11 66 -24 -4 -7 5 -9 27 -5 29 6 44 15 96 63 25 23 47 10 50 -31 4 -42 16
-48 27 -14 5 12 11 31 15 42 6 18 8 17 23 -10 17 -31 19 -30 21 8 0 12 11 26
23 32 12 5 24 16 27 25 2 9 4 6 5 -7 1 -27 16 -30 30 -6 9 15 10 13 11 -14 0
-17 3 -39 6 -48 6 -14 8 -14 27 2 11 10 17 13 14 6 -12 -20 14 -26 29 -7 13
18 15 18 28 2 16 -22 26 -23 26 -2 0 14 1 14 16 0 8 -9 29 -16 45 -16 18 0 29
-5 29 -14 0 -7 13 -19 28 -25 68 -28 228 -5 206 30 -10 16 13 9 36 -11 12 -11
27 -17 31 -14 5 3 9 2 9 -3 1 -48 56 -30 84 28 l19 39 15 -30 c21 -43 91 -92
122 -87 21 4 28 -1 45 -36 20 -42 45 -60 45 -34 0 21 24 38 61 42 18 3 45 17
60 31 24 23 31 25 44 14 14 -11 17 -10 22 9 l6 22 28 -27 c15 -14 33 -39 39
-55 14 -34 22 -35 61 -12 28 17 29 16 49 -5 22 -24 93 -31 105 -11 10 15 40
-15 56 -54 12 -28 37 -64 40 -55 1 2 2 15 3 29 5 54 29 60 47 11 l10 -26 23
29 23 29 18 -30 c10 -16 25 -40 33 -53 l15 -24 12 23 c13 23 13 23 20 -11 l8
-34 23 50 c18 42 23 47 29 30 21 -61 25 -67 40 -55 8 6 18 9 23 6 9 -5 34 38
46 76 6 22 42 13 49 -13 3 -10 16 -23 30 -28 27 -11 69 -59 62 -71 -3 -5 -1
-11 5 -15 6 -4 10 6 10 24 0 17 5 31 10 31 6 0 10 -5 10 -11 0 -15 40 -64 41
-50 1 6 3 16 4 21 1 6 3 12 4 15 0 3 17 -11 36 -31 19 -19 39 -33 45 -29 6 3
17 23 26 43 18 44 28 33 38 -41 5 -29 17 -57 31 -73 24 -26 25 -26 51 -9 14 9
72 61 127 116 l102 98 6 -57 c6 -64 16 -87 53 -121 28 -27 34 -26 39 7 2 12 8
27 15 34 17 17 27 -37 13 -82 -21 -69 -8 -80 39 -30 15 16 30 27 32 24 3 -3
43 33 90 80 l84 85 -2 -88 c-2 -106 9 -135 53 -139 30 -3 33 0 43 38 13 47 14
47 81 -24 l38 -40 39 28 c52 36 92 43 92 17 0 -31 15 -33 40 -6 34 37 68 32
61 -8 -3 -19 23 -87 34 -87 17 0 35 22 35 42 0 10 4 18 9 18 5 0 13 9 16 21
11 32 29 16 29 -27 1 -35 4 -39 26 -40 33 -1 70 -21 97 -53 l22 -26 1 24 c0
19 4 22 23 17 12 -3 25 -6 30 -6 4 0 7 -9 7 -20 0 -26 16 -26 30 0 6 11 21 22
34 26 37 9 63 -11 70 -53 14 -74 14 -75 41 -55 12 9 21 20 18 25 -2 4 1 7 7 7
6 0 9 3 7 8 -6 10 10 52 20 52 5 0 14 -14 20 -30 7 -19 16 -28 25 -25 15 6 16
11 19 70 1 39 13 45 29 15 6 -11 9 -20 6 -20 -3 0 0 -14 5 -30 8 -22 17 -30
35 -30 13 0 24 5 24 10 0 22 22 8 34 -21 14 -33 25 -28 28 15 4 41 14 23 17
-29 1 -27 32 -48 39 -27 5 17 39 15 46 -4 3 -8 11 -12 17 -9 5 4 8 9 5 12 -9
9 22 61 46 77 49 35 88 11 88 -53 0 -61 49 -23 50 39 1 37 1 38 30 -35 l12
-30 13 35 c13 33 14 33 14 8 1 -26 24 -58 42 -58 8 0 14 30 10 53 -3 19 28 4
33 -17 8 -34 35 -41 61 -16 12 11 29 20 38 20 18 0 20 -9 17 -77 -1 -24 1 -52
5 -63 13 -42 53 -12 49 38 -1 13 4 22 12 22 8 0 14 -5 14 -11 0 -5 4 -7 10 -4
5 3 15 -5 21 -19 12 -26 33 -27 23 -1 -4 10 4 18 22 25 39 15 72 5 80 -24 6
-24 6 -24 25 -5 24 24 34 24 51 0 7 -10 23 -21 36 -25 18 -6 27 -18 20 -28 -4
-7 24 -48 32 -48 5 0 30 20 57 45 26 24 50 45 53 45 3 0 12 -24 21 -52 l15
-53 21 46 c19 43 22 45 56 41 27 -3 37 -9 39 -26 2 -14 9 -20 21 -18 11 2 17
-4 17 -18 0 -24 8 -25 32 -3 17 15 19 14 29 -15 8 -23 17 -32 33 -32 33 0 96
47 96 72 0 8 4 7 11 -5 5 -9 16 -17 24 -17 7 0 17 -9 20 -20 6 -19 25 -28 25
-12 0 4 14 32 32 62 30 52 31 53 40 30 5 -13 8 -33 7 -45 -4 -52 2 -86 16 -91
13 -5 67 27 66 40 -3 26 1 37 11 34 11 -4 22 -30 33 -82 7 -30 13 -31 38 -8
13 12 26 22 30 22 4 0 7 -22 7 -48 0 -27 3 -52 6 -55 8 -8 87 116 99 153 8 25
8 24 20 -10 l13 -35 10 25 10 25 7 -28 c9 -33 24 -24 27 16 6 65 45 -2 54 -91
l7 -61 31 6 c17 3 33 9 36 12 12 14 30 9 30 -8 0 -10 6 -24 14 -30 12 -10 17
-8 26 8 6 12 21 21 33 21 12 0 40 11 61 24 22 13 46 22 53 19 7 -3 16 2 19 11
6 15 8 14 21 -4 11 -15 18 -18 28 -10 9 7 16 6 25 -5 7 -9 19 -14 27 -11 7 3
13 2 13 -2 0 -9 -44 -48 -47 -42 -3 8 -53 -39 -53 -50 0 -20 53 -43 108 -48
95 -7 693 -9 697 -2 3 4 16 5 31 2 25 -5 25 -4 21 39 -3 24 -8 55 -11 69 -3
14 -8 39 -10 55 -3 17 -15 75 -26 130 -12 55 -23 114 -26 130 -7 42 -11 64
-23 110 -5 22 -8 41 -6 44 3 2 1 9 -4 15 -5 6 -11 29 -13 51 -2 22 -7 45 -10
51 -4 5 -9 28 -12 49 -13 93 -16 107 -25 124 -6 10 -8 20 -6 23 3 2 -1 29 -9
59 -8 30 -17 70 -20 89 -3 19 -10 53 -15 75 -6 22 -8 41 -6 44 3 2 1 9 -4 15
-5 6 -11 27 -14 46 -3 19 -13 67 -22 105 -9 39 -17 79 -19 90 -2 11 -6 27 -9
35 -5 14 -25 95 -32 131 -11 56 -58 227 -66 241 -5 10 -9 24 -9 31 0 20 -89
295 -112 347 -11 25 -31 68 -44 95 -13 28 -23 54 -23 59 1 5 -3 12 -8 15 -9 6
-44 67 -44 76 1 29 -31 68 -179 215 -102 103 -138 136 -255 239 -16 15 -46 38
-65 51 -19 13 -37 27 -40 30 -9 9 -69 50 -74 50 -3 0 -28 13 -56 30 -27 16
-50 27 -50 23 0 -3 -9 2 -21 13 -12 10 -23 18 -25 17 -8 -4 -205 96 -296 150
-26 16 -52 26 -58 22 -5 -3 -10 -1 -10 5 0 6 -4 9 -8 6 -5 -3 -18 4 -30 14
-12 11 -30 20 -41 20 -11 0 -21 4 -23 9 -2 5 -23 20 -47 33 -27 14 -51 36 -60
55 -14 30 -20 33 -55 31 -26 -1 -42 3 -51 15 -7 9 -24 17 -39 17 -14 0 -26 4
-26 8 0 5 -19 15 -42 21 -46 14 -201 94 -230 119 -10 8 -18 11 -18 6 0 -5 -4
-4 -8 1 -4 6 -32 27 -63 48 -56 37 -95 73 -101 92 -2 6 -5 9 -8 8 -3 -1 -12
-4 -21 -8 -12 -4 -18 1 -23 20 -4 14 -4 30 -1 35 3 5 0 18 -7 29 -10 17 -10
23 3 33 31 25 48 61 43 88 -4 16 0 32 8 41 8 8 15 19 15 24 2 15 -17 35 -32
35 -11 0 -62 -63 -117 -144 -7 -10 -60 22 -111 67 -17 16 -35 23 -47 20 -31
-8 -24 9 26 61 49 50 50 60 4 62 -45 2 -57 10 -58 43 -1 51 -11 69 -42 76 -33
7 -38 19 -44 105 -5 73 -5 70 -16 70 -15 0 -37 -60 -59 -167 -12 -53 -25 -101
-29 -105 -15 -15 -65 -15 -101 -1 -18 7 -49 13 -67 13 -41 0 -133 57 -133 82
-1 27 -91 75 -178 95 -13 3 -23 9 -23 14 0 5 -5 9 -10 9 -13 0 -61 34 -104 73
-17 15 -50 33 -73 39 -39 9 -42 12 -31 31 26 48 7 126 -33 139 -9 3 -14 29
-15 87 -2 98 -14 117 -37 64 -21 -48 -34 -131 -31 -206 1 -56 12 -85 21 -59 8
22 21 3 15 -23 -3 -18 -11 -25 -28 -25 -12 0 -26 5 -29 10 -3 6 -15 10 -25 10
-31 0 -48 39 -48 107 0 33 -3 66 -6 72 -4 6 -2 11 4 11 8 0 8 6 0 20 -7 14 -7
26 -1 39 6 10 7 22 3 26 -7 7 -9 13 -11 44 0 11 -9 22 -20 26 -29 9 -58 39
-53 54 3 8 -1 12 -9 9 -15 -5 -34 -78 -45 -168 -14 -125 -18 -135 -44 -132
-14 1 -61 5 -105 7 -94 6 -105 8 -124 19 -7 5 -36 9 -63 9 -29 0 -79 10 -117
24 -36 14 -88 33 -114 43 -26 9 -53 22 -60 29 -6 6 -17 11 -24 11 -8 0 -40 14
-73 30 -33 17 -61 30 -62 29 -2 0 -32 13 -68 29 -36 16 -87 39 -115 51 -78 35
-189 92 -203 106 -11 10 -8 15 13 29 15 10 24 23 22 30 -3 7 4 18 15 25 20 12
20 13 2 30 -11 9 -27 20 -36 24 -19 7 -20 11 -20 105 0 34 -4 63 -9 63 -5 1
-13 3 -19 4 -5 1 -20 3 -32 4 -22 2 -22 2 -3 13 40 23 45 48 15 78 -20 20 -20
20 3 26 28 7 30 31 5 58 -19 20 -10 35 20 36 8 0 25 9 39 20 21 16 23 21 10
26 -14 5 -14 9 4 27 21 23 20 66 -1 93 -10 11 -9 14 9 14 33 0 28 51 -9 89
-17 16 -26 32 -21 35 5 3 11 -1 15 -9 8 -23 44 -18 61 9 14 20 14 26 1 51 -18
34 -12 48 15 40 15 -5 19 -1 19 19 0 19 7 27 24 32 28 7 38 33 26 73 -14 49 9
169 30 156 13 -8 26 17 40 78 7 31 17 57 22 57 5 0 7 4 3 9 -10 18 29 29 89
24 43 -3 63 0 75 12 10 8 21 12 25 8 16 -17 0 21 -17 39 -16 17 -16 20 -2 34
8 9 13 20 9 25 -3 5 2 16 10 25 22 22 20 50 -6 73 -17 17 -19 23 -8 36 10 12
10 15 -3 15 -21 0 -29 26 -11 40 12 11 36 15 117 19 26 1 21 18 -8 23 -16 3
-22 1 -18 -6 3 -6 0 -5 -8 2 -7 6 -23 12 -35 12 -13 0 -34 4 -49 10 l-25 10
24 38 c17 27 21 43 15 55 -7 12 -4 19 11 27 16 9 19 15 11 24 -18 22 10 37 81
45 4 1 5 8 2 16 -4 8 -10 12 -15 9 -5 -3 -9 -1 -9 5 0 5 14 12 30 16 34 7 38
20 13 47 -16 18 -16 18 0 12 13 -4 17 -1 17 14 0 21 -18 32 -50 32 -19 0 -44
31 -35 44 3 3 2 4 -2 1 -10 -8 -51 70 -56 107 -2 19 -15 56 -27 83 -13 28 -22
54 -21 59 1 5 -5 16 -13 25 -25 27 -46 175 -30 209 4 10 9 26 11 37 3 22 3
248 -1 425 -3 139 3 174 29 176 11 1 27 2 36 3 28 2 29 28 5 73 -12 24 -22 48
-21 53 6 44 20 77 36 85 12 7 19 21 19 40 0 16 8 43 18 60 21 34 21 128 0 142
-7 5 -28 7 -47 5 -58 -6 -81 63 -25 77 27 7 32 33 9 43 -9 3 -15 13 -13 22 1
9 -3 25 -8 36 -6 11 -12 47 -14 80 -1 33 -3 71 -4 85 -4 35 -58 85 -109 101
-42 12 -44 14 -26 28 18 16 22 29 20 69 -1 17 -7 22 -30 22 -40 0 -62 32 -55
79 4 31 0 41 -27 71 -50 54 -62 81 -43 101 14 16 26 95 24 167 -1 51 18 110
38 115 16 3 91 -20 102 -32 11 -13 52 -32 57 -27 3 3 -5 22 -17 43 l-22 38 26
-24 c24 -23 26 -23 26 -5 0 11 -7 30 -16 43 l-16 23 48 -26 c26 -14 49 -24 51
-23 7 7 -11 47 -21 47 -20 0 -62 44 -61 65 0 11 -8 28 -18 38 -23 23 -15 34
34 49 23 6 48 22 56 35 8 12 19 20 24 17 5 -3 14 6 20 20 7 14 28 32 50 40 25
10 37 20 33 30 -3 7 1 16 9 19 19 7 11 50 -13 72 -16 15 -16 17 10 45 24 26
58 112 52 133 -1 4 3 7 9 7 5 0 7 4 4 10 -3 5 -8 20 -10 32 -5 26 -66 88 -87
88 -7 0 -21 7 -32 15 -16 12 -17 16 -3 29 8 8 17 12 21 9 3 -4 6 4 6 16 0 12
-6 24 -14 27 -8 3 -13 11 -10 18 6 16 -21 40 -36 31 -5 -3 -10 -2 -10 4 0 5
16 15 35 21 19 6 35 18 35 26 0 18 -22 13 -98 -23 -48 -23 -85 -25 -80 -6 3
14 -15 67 -26 78 -6 6 -20 10 -31 10 -15 0 -21 10 -28 43 -4 23 -13 40 -18 36
-14 -8 -3 44 15 71 8 13 17 35 20 49 5 26 2 28 -61 41 -18 4 -33 11 -33 16 0
21 89 96 152 128 36 19 64 39 62 45 -5 13 -69 56 -84 56 -17 0 -11 29 10 50
18 18 18 25 -3 21 -10 -2 -2 12 29 55 13 16 25 45 26 63 1 18 6 35 10 37 18
11 6 32 -21 37 -26 5 -30 10 -29 39 1 18 8 43 16 56 13 20 13 22 -2 22 -20 0
-20 -2 3 51 22 51 33 109 21 109 -5 0 -12 -4 -15 -10 -11 -18 -57 -11 -62 9
-4 15 -12 19 -33 16 -25 -3 -30 1 -35 25 -3 16 -18 36 -33 46 -15 9 -34 24
-42 33 -18 19 -45 79 -45 101 0 10 -11 15 -33 15 -24 0 -32 4 -32 17 0 10 7
18 16 18 8 0 12 5 9 10 -10 16 -37 11 -61 -11 -26 -24 -45 -18 -41 13 2 12 -8
32 -25 50 -15 16 -28 32 -29 36 -5 51 -46 109 -148 210 -133 132 -164 151
-303 186 l-93 23 3 35 c3 40 -9 49 -71 54 -21 1 -62 16 -90 32 -29 16 -72 32
-96 36 -24 3 -45 7 -45 8 -10 29 -27 43 -48 40 -42 -5 -72 28 -75 84 -1 27 -2
53 -2 58 -1 4 -10 6 -20 3 -32 -8 -46 10 -48 60 -1 39 -7 52 -28 69 l-27 21
27 21 c15 12 24 26 20 32 -5 8 -11 8 -21 -1 -14 -11 -15 -10 -18 14 -2 17 -34
10 -59 -14 -27 -25 -35 -24 -39 3 -3 24 -27 30 -66 18 -15 -5 -47 -11 -71 -14
-24 -3 -52 -13 -62 -22 -16 -15 -19 -14 -33 15 -9 17 -27 33 -41 37 -25 6 -95
-12 -95 -25 0 -12 -101 -10 -130 3 -14 6 -33 18 -43 27 -20 19 -112 25 -122 8z"/>
</g>
</svg>
